<?xml version="1.0" encoding="UTF-8"?>
<!DOCTYPE svg  PUBLIC '-//W3C//DTD SVG 1.1//EN'  'http://www.w3.org/Graphics/SVG/1.1/DTD/svg11.dtd'>
<svg enable-background="new 0 0 1649.8032 1649.8032" version="1.1" viewBox="0 0 1649.8032 1649.8032" xml:space="preserve" xmlns="http://www.w3.org/2000/svg">
	<linearGradient id="g" x1="1174.4" x2="302.4" y1="1199.5" y2="1495.5" gradientUnits="userSpaceOnUse">
		<stop stop-color="#8FD9FF" offset="0"/>
		<stop stop-color="#005A97" offset="1"/>
	</linearGradient>
	<path d="m1129.3 1185.6c12.699-133.31 10.559-258.62 8.2264-320.42l-143.8 249.06 0.2117 0.3142c-0.0488 0.0328-0.2675 0.1794-0.64 0.4279l-0.493 0.8541h-0.7924c-17.706 11.733-154.61 101.31-316.72 175.42-101.92 46.596-193.85 78.116-273.23 93.686-51.269 10.056-97.471 13.434-138.33 10.185 144.4 142.12 342.52 229.81 561.13 229.81 60.049 0 118.55-6.6301 174.82-19.173 29.582-34.931 54.808-82.6 75.345-142.53 25.58-74.648 43.843-168.06 54.28-277.63z" fill="url(#g)"/>
	<linearGradient id="h" x1="482.46" x2="1354.4" y1="445.87" y2="167.58" gradientUnits="userSpaceOnUse">
		<stop stop-color="#FFF33B" offset="0"/>
		<stop stop-color="#E93E3A" offset="1"/>
	</linearGradient>
	<path d="m656.95 534h0.7925c17.706-11.734 154.61-101.31 316.72-175.42 101.92-46.596 193.85-78.116 273.23-93.685 51.269-10.056 97.471-13.434 138.33-10.185-144.4-142.12-342.52-229.81-561.13-229.81-60.049 0-118.55 6.6301-174.82 19.173-29.582 34.931-54.808 82.6-75.345 142.53-25.58 74.648-43.843 168.06-54.28 277.63-12.699 133.31-10.559 258.62-8.2264 320.42l143.8-249.06-0.2115-0.3142c0.0487-0.0328 0.2673-0.1794 0.6399-0.4278l0.4931-0.8543z" fill="url(#h)"/>
	<linearGradient id="i" x1="980.23" x2="1672.3" y1="339.83" y2="947.8" gradientUnits="userSpaceOnUse">
		<stop stop-color="#8CC63F" offset="0"/>
		<stop stop-color="#90C03D" offset=".1085"/>
		<stop stop-color="#9AAE38" offset=".2559"/>
		<stop stop-color="#AA922E" offset=".4256"/>
		<stop stop-color="#C16A22" offset=".612"/>
		<stop stop-color="#DF3812" offset=".8095"/>
		<stop stop-color="#f00" offset="1"/>
	</linearGradient>
	<path d="m1252.6 289.11c-77.438 15.171-167.46 46.06-267.58 91.809-121.8 55.659-229.25 120.16-281.61 153.09h287.59l0.1664-0.3403c0.0529 0.0258 0.2892 0.1418 0.6906 0.3403h0.9865l0.396 0.6862c19.015 9.4673 165.04 83.238 310.28 186.58 91.316 64.972 164.58 128.82 217.75 189.78 34.431 39.473 60.501 77.891 78.119 114.99 16.643-64.267 25.504-131.67 25.504-201.14 0-209.04-80.185-399.34-211.46-541.86-44.988-8.097-98.791-6.0954-160.84 6.061z" fill="url(#i)"/>
	<linearGradient id="j" x1="1322.2" x2="1162.2" y1="706.05" y2="1614" gradientUnits="userSpaceOnUse">
		<stop stop-color="#FF49C1" offset="0"/>
		<stop stop-color="#F947C2" offset=".0965"/>
		<stop stop-color="#E943C6" offset=".2206"/>
		<stop stop-color="#CF3BCD" offset=".36"/>
		<stop stop-color="#AA31D6" offset=".5105"/>
		<stop stop-color="#7A23E1" offset=".6699"/>
		<stop stop-color="#4113EF" offset=".835"/>
		<stop stop-color="#00f" offset="1"/>
	</linearGradient>
	<path d="m1502.8 927.4c-51.857-59.477-123.62-122-213.3-185.83-109.1-77.654-218.69-138.45-273.38-167.34l143.8 249.06 0.3779-0.0261c4e-3 0.0587 0.0217 0.3212 0.0505 0.7682l0.493 0.8542-0.3961 0.6861c1.3085 21.201 10.435 184.55-6.4392 362-10.609 111.57-29.276 206.94-55.482 283.47-16.969 49.555-37.205 91.341-60.524 125.15 261.82-72.164 469.85-274.06 550.59-532.21-15.454-43.107-44.133-88.814-85.791-136.59z" fill="url(#j)"/>
	<linearGradient id="k" x1="649.14" x2="15.137" y1="1300.1" y2="654.13" gradientUnits="userSpaceOnUse">
		<stop stop-color="#C3D7FF" offset="0"/>
		<stop stop-color="#00CBA5" offset="1"/>
	</linearGradient>
	<path d="m397.2 1360.7c77.438-15.171 167.46-46.06 267.58-91.809 121.8-55.659 229.25-120.16 281.61-153.09h-287.59l-0.1664 0.3403c-0.0529-0.0259-0.2892-0.1418-0.6906-0.3403h-0.9865l-0.396-0.6862c-19.015-9.4673-165.04-83.238-310.28-186.58-91.316-64.972-164.58-128.82-217.75-189.78-34.432-39.473-60.501-77.891-78.119-114.99-16.642 64.267-25.504 131.67-25.504 201.14 0 209.04 80.185 399.34 211.46 541.86 44.988 8.0971 98.791 6.0954 160.84-6.0611z" fill="url(#k)"/>
	<linearGradient id="l" x1="327.68" x2="467.68" y1="961.95" y2="33.954" gradientUnits="userSpaceOnUse">
		<stop stop-color="#EDE928" offset="0"/>
		<stop stop-color="#F37E31" offset="1"/>
	</linearGradient>
	<path d="m147.04 722.4c51.857 59.477 123.62 122 213.3 185.83 109.1 77.654 218.69 138.45 273.38 167.34l-143.8-249.06-0.3779 0.026c-4e-3 -0.0586-0.0217-0.3212-0.0505-0.7681l-0.4931-0.8542 0.3961-0.6862c-1.3083-21.201-10.435-184.55 6.4392-362 10.609-111.57 29.276-206.94 55.482-283.47 16.969-49.555 37.205-91.341 60.524-125.15-261.82 72.164-469.85 274.06-550.59 532.21 15.454 43.107 44.133 88.813 85.791 136.59z" fill="url(#l)"/>
</svg>
